<?xml version="1.0" encoding="UTF-8"?>
<svg xmlns="http://www.w3.org/2000/svg" id="Line_Expand" data-name="Line Expand" viewBox="0 0 64 64" width="512" height="512"><path d="M50,36.75a.75.75,0,0,0,.75-.75V32a.75.75,0,0,0-1.5,0v4A.75.75,0,0,0,50,36.75Z"/><path d="M47,36.75a.75.75,0,0,0,.75-.75V32a.75.75,0,0,0-1.5,0v4A.75.75,0,0,0,47,36.75Z"/><path d="M44,36.75a.75.75,0,0,0,.75-.75V32a.75.75,0,0,0-1.5,0v4A.75.75,0,0,0,44,36.75Z"/><path d="M55,48.25A3.75,3.75,0,1,0,58.75,52,3.754,3.754,0,0,0,55,48.25Zm0,6A2.25,2.25,0,1,1,57.25,52,2.252,2.252,0,0,1,55,54.25Z"/><path d="M15,40.25A5.75,5.75,0,1,0,20.75,46,5.757,5.757,0,0,0,15,40.25Zm0,10A4.25,4.25,0,1,1,19.25,46,4.255,4.255,0,0,1,15,50.25Z"/><path d="M60.75,45.421V33.279a4.762,4.762,0,0,0-3.819-4.657l-3.181-.637V20a.75.75,0,0,0-.75-.75h-.75V14.165l3.321-1.917a.751.751,0,0,0,.275-1.025l-1.5-2.6a.749.749,0,0,0-1.025-.274l-5.2,3a.751.751,0,0,0-.375.65v7.25H47a.75.75,0,0,0-.75.75v6.485l-5.691-1.138L34.048,7.675A2.246,2.246,0,0,0,33.5,3.25H6.5a2.244,2.244,0,0,0-.25,4.475V30.577A17.838,17.838,0,0,0,.382,35.952h0a.751.751,0,0,0,.013.87l1.615,2.2A14.743,14.743,0,1,0,28.951,50.75h17.4a8.746,8.746,0,1,0,14.4-5.329ZM49.25,12.433l4.172-2.409.75,1.3-3.047,1.758a.751.751,0,0,0-.375.65V19.25h-1.5Zm-1.5,8.317h4.5v6.935l-4.5-.9ZM40.75,36V26.915l15.887,3.177a3.258,3.258,0,0,1,2.61,3.158H54a.75.75,0,0,0-.75.75v1A3.754,3.754,0,0,0,57,38.75h2.25v1.5H55a11.694,11.694,0,0,0-10.226,6H32.75V46a17.615,17.615,0,0,0-2.63-9.25H40A.75.75,0,0,0,40.75,36Zm18.5-1.25v2.5H57A2.252,2.252,0,0,1,54.75,35v-.25ZM19,16.25H17.75V7.75H29.28l6.3,17.1L31.1,22.261l.875-1.516a.75.75,0,0,0-1.3-.75l-2.5,4.33a.75.75,0,1,0,1.3.75l.875-1.515,5.9,3.408V35.25H29.091a17.815,17.815,0,0,0-7.341-5.659V19A2.753,2.753,0,0,0,19,16.25ZM20.25,19V29.044a17.664,17.664,0,0,0-2.5-.559V17.75H19A1.252,1.252,0,0,1,20.25,19Zm19,7.134V35.25h-1.5V26.535a.764.764,0,0,0-.046-.259L30.878,7.75h1.6ZM5.75,5.5a.75.75,0,0,1,.75-.75h27a.75.75,0,0,1,0,1.5H6.5A.75.75,0,0,1,5.75,5.5Zm10.5,2.25V28.313c-.415-.029-.828-.063-1.25-.063a17.664,17.664,0,0,0-4.25.52V7.75Zm-7,0V29.221c-.508.175-1.01.367-1.5.587V7.75Zm17.719,43.9-.556-.661a.749.749,0,0,0-1.056-.093h0a.75.75,0,0,0-.093,1.057l.93,1.108a13.33,13.33,0,0,1-3.652,3.822l-.151-.855a.75.75,0,1,0-1.477.26l.253,1.433A13.154,13.154,0,0,1,16.091,59.2l.3-.818a.749.749,0,0,0-.448-.961h0a.75.75,0,0,0-.961.448l-.495,1.36a13.123,13.123,0,0,1-5.131-1.256l.661-.555a.749.749,0,0,0,.093-1.056h0a.75.75,0,0,0-1.057-.093l-1.108.93A13.33,13.33,0,0,1,4.12,53.542l.855-.151a.75.75,0,1,0-.26-1.477l-1.433.253a13.154,13.154,0,0,1-1.477-5.076l.818.3a.749.749,0,0,0,.961-.448h0a.75.75,0,0,0-.448-.961l-1.36-.495a13.123,13.123,0,0,1,1.256-5.131l.555.661a.749.749,0,0,0,1.056.093h0a.75.75,0,0,0,.093-1.057l-.93-1.108A13.33,13.33,0,0,1,7.458,35.12l.151.855a.75.75,0,1,0,1.477-.26l-.253-1.433a13.154,13.154,0,0,1,5.076-1.477l-.3.818a.75.75,0,0,0,.448.961h0a.75.75,0,0,0,.961-.448l.495-1.36a13.14,13.14,0,0,1,5.131,1.255l-.661.556a.749.749,0,0,0-.093,1.056h0a.75.75,0,0,0,1.057.093l1.108-.93a13.33,13.33,0,0,1,3.822,3.652l-.855.151a.75.75,0,1,0,.26,1.477l1.433-.253A13.154,13.154,0,0,1,28.2,44.909l-.818-.3a.749.749,0,0,0-.961.448h0a.75.75,0,0,0,.448.962l1.36.495A13.14,13.14,0,0,1,26.969,51.647Zm2.408-2.4A14.737,14.737,0,0,0,2.859,37.643l-.933-1.271A16.239,16.239,0,0,1,31.25,46v1a.75.75,0,0,0,.75.75H45.222a.752.752,0,0,0,.668-.408h0A10.209,10.209,0,0,1,55,41.75h4.25v2.608A8.732,8.732,0,0,0,46.7,49.25ZM55,59.25A7.25,7.25,0,1,1,62.25,52,7.258,7.258,0,0,1,55,59.25Z"/></svg>
